Patient4_TMGait_0pt4_01_left_28_GRF.mot
version=1
nRows=32
nColumns=19
inDegrees=no
endheader
time	F1x	F1y	F1z	M1x	M1y	M1z	F2x	F2y	F2z	M2x	M2y	M2z	EC1x	EC1y	EC1z	EC2x	EC2y	EC2z
34.08	4.5895	-1.4386	1.8588	0.27869	-2.3932	0.5511	-28.9888	769.3562	-66.4047	279.6005	90.9278	903.9911	-0.0592	0.0182	-0.0073	-0.0462	0.0165	0.9585
34.0937	2.9405	-0.28745	1.2808	-0.041022	-1.7117	1.173	-29.3484	759.6636	-67.0651	275.96	90.7644	891.0193	-0.0592	0.0182	-0.0073	-0.0462	0.0165	0.9585
34.1074	1.5563	0.66939	0.80261	-0.31052	-1.1402	1.6833	-29.5835	750.2332	-67.1498	272.2894	90.007	878.253	-0.0592	0.0182	-0.0073	-0.0462	0.0165	0.9585
34.1211	0.51112	1.3903	0.44976	-0.52174	-0.71453	2.0682	-29.7008	742.3141	-66.73	269.0737	88.79	867.1605	-0.0592	0.0182	-0.0073	-0.0462	0.0165	0.9585
34.1349	-0.21198	1.8867	0.21189	-0.67873	-0.42974	2.3408	-29.7094	736.9345	-65.9819	266.7334	87.3267	858.8855	-0.0592	0.0182	-0.0073	-0.0462	0.0165	0.9585
34.1486	-0.66316	2.183	0.075011	-0.7856	-0.26984	2.5093	-29.6175	734.7139	-65.0932	265.5411	85.8158	854.0732	-0.0592	0.0182	-0.0073	-0.0462	0.0165	0.9585
34.1623	-0.91247	2.3041	0.0098311	-0.84429	-0.20209	2.5772	-29.3982	735.8176	-64.2166	265.5958	84.3876	852.8339	-0.0592	0.0182	-0.0073	-0.0462	0.0165	0.9585
34.176	-1.0398	2.2643	-0.0033522	-0.84986	-0.20518	2.5289	-28.9963	739.977	-63.455	266.8276	83.1031	854.786	-0.0592	0.0182	-0.0073	-0.0462	0.0165	0.9585
34.1897	-1.103	2.0535	0.014194	-0.7906	-0.2548	2.3119	-28.3614	746.5436	-62.8571	269.0181	81.9649	859.145	-0.0592	0.0182	-0.0073	-0.0462	0.0165	0.9585
34.2034	-1.1564	1.6427	0.054162	-0.6504	-0.34118	1.8638	-27.4317	754.5658	-62.4184	271.8302	80.9175	864.8052	-0.0592	0.0182	-0.0073	-0.0462	0.0165	0.9585
34.2171	-1.2196	0.98108	0.10747	-0.40778	-0.45101	1.0966	-26.1561	762.8897	-62.0981	274.8417	79.8741	870.4693	-0.0592	0.0182	-0.0073	-0.0462	0.0165	0.9585
34.2309	-1.2929	0.015291	0.16614	-0.042838	-0.5696	-0.07267	-24.4977	770.2421	-61.8264	277.5788	78.7281	874.7426	-0.0592	0.0182	-0.0073	-0.0462	0.0165	0.9585
34.2446	-1.3597	-1.2906	0.22187	0.45339	-0.67622	-1.6858	-22.4255	775.3734	-61.5358	279.5707	77.3817	876.2902	-0.0592	0.0182	-0.0073	-0.0462	0.0165	0.9585
34.2583	-1.3631	-2.9231	0.26381	1.0698	-0.73454	-3.7247	-19.9163	777.2536	-61.1769	280.4208	75.7622	874.0493	-0.0592	0.0182	-0.0073	-0.0462	0.0165	0.9585
34.272	-1.2393	-4.7549	0.27528	1.755	-0.69732	-6.0186	-16.95	775.2633	-60.7474	279.8792	73.8535	867.4133	-0.0592	0.0182	-0.0073	-0.0462	0.0165	0.9585
34.2857	-0.8797	-6.4766	0.22535	2.3933	-0.49095	-8.1817	-13.5412	769.4068	-60.2868	277.9247	71.7051	856.4595	-0.0592	0.0182	-0.0073	-0.0462	0.0165	0.9585
34.2994	-0.15722	-7.5395	0.077719	2.7839	-0.029077	-9.5337	-9.7351	760.3754	-59.8775	274.7867	69.4272	842.0156	-0.0592	0.0182	-0.0073	-0.0462	0.0165	0.9585
34.3131	1.059	-7.0931	-0.21174	2.616	0.78038	-9.0203	-5.6154	749.4217	-59.6047	270.904	67.1549	825.5253	-0.0592	0.0182	-0.0073	-0.0462	0.0165	0.9585
34.3269	2.8864	-3.9522	-0.67994	1.4543	2.0217	-5.1787	-1.3292	738.073	-59.5346	266.822	65.0274	808.7367	-0.0592	0.0182	-0.0073	-0.0462	0.0165	0.9585
34.3406	5.3623	3.3799	-1.3507	-1.2506	3.738	3.8477	2.9614	727.7501	-59.7007	263.0512	63.1541	793.274	-0.0592	0.0182	-0.0073	-0.0462	0.0165	0.9585
34.3543	8.4029	16.5737	-2.2239	-6.1136	5.8901	20.1272	7.096	719.3515	-60.094	259.9134	61.5979	780.199	-0.0592	0.0182	-0.0073	-0.0462	0.0165	0.9585
34.368	11.6889	37.2039	-3.2465	-13.7118	8.2843	45.6256	10.924	712.8726	-60.6446	257.4043	60.3527	769.5985	-0.0592	0.0182	-0.0073	-0.0462	0.0165	0.9585
34.3817	14.5709	66.2553	-4.2914	-24.404	10.5076	81.5947	14.3264	707.2541	-61.2141	255.1414	59.3244	760.414	-0.0592	0.0182	-0.0073	-0.0462	0.0165	0.9585
34.3954	15.9723	103.347	-5.1043	-38.0471	11.8428	127.611	17.2084	700.5656	-61.5902	252.4345	58.3294	750.6382	-0.0592	0.0182	-0.0073	-0.0462	0.0165	0.9585
34.4091	14.4912	145.9045	-5.2999	-53.6836	11.3083	180.5529	19.5023	690.4811	-61.4945	248.4603	57.1032	737.8079	-0.0592	0.0182	-0.0073	-0.0462	0.0165	0.9585
34.4229	9.5904	189.1088	-4.2637	-69.5001	7.9765	234.52	21.1634	674.9204	-60.6677	242.4917	55.3949	719.6913	-0.0592	0.0182	-0.0073	-0.0462	0.0165	0.9585
34.4366	2.646	227.8057	-1.4241	-83.5624	1.7624	283.0855	22.219	652.6995	-58.988	234.1277	53.0722	694.9581	-0.0592	0.0182	-0.0073	-0.0462	0.0165	0.9585
34.4503	-4.7109	259.9415	2.7063	-95.1186	-6.1093	323.4676	22.7813	623.8379	-56.5457	223.3926	50.192	663.5125	-0.0592	0.0182	-0.0073	-0.0462	0.0165	0.9585
34.464	-11.476	286.9719	7.68	-104.7056	-14.6807	357.2998	23.0108	589.1981	-53.5666	210.61	46.9303	626.1431	-0.0592	0.0182	-0.0073	-0.0462	0.0165	0.9585
34.4777	-17.0956	311.5858	12.7888	-113.3412	-22.9171	387.7785	23.0579	549.9257	-50.1861	196.2117	43.3745	583.9687	-0.0592	0.0182	-0.0073	-0.0462	0.0165	0.9585
34.4914	-21.514	336.1982	17.727	-121.9356	-30.385	417.8508	22.9998	507.0997	-46.3583	180.6132	39.4551	538.0918	-0.0592	0.0182	-0.0073	-0.0462	0.0165	0.9585
34.5051	-24.7746	362.4309	22.1066	-131.1163	-36.6681	449.3935	22.8253	461.638	-41.959	164.1668	35.0529	489.4865	-0.0592	0.0182	-0.0073	-0.0462	0.0165	0.9585
